<?xml version="1.0" encoding="iso-8859-1"?>
<!-- Generator: Adobe Illustrator 19.0.0, SVG Export Plug-In . SVG Version: 6.00 Build 0)  -->
<svg version="1.1" id="Capa_1" xmlns="http://www.w3.org/2000/svg" xmlns:xlink="http://www.w3.org/1999/xlink" x="0px" y="0px"
	 viewBox="0 0 512 512" style="enable-background:new 0 0 512 512;" xml:space="preserve">
<path style="fill:#E1F1FA;" d="M512,150v317c0,24.901-20.099,45-45,45H45c-24.901,0-45-20.099-45-45V150l49.2-30h439.399L512,150z"
	/>
<path style="fill:#BFE1FF;" d="M512,150v317c0,24.901-20.099,45-45,45H256V120h232.599L512,150z"/>
<path style="fill:#65B1FC;" d="M416.499,335.499l-150-150C263.8,182.5,259.9,181,256,181s-7.8,1.5-10.499,4.499l-150,150
	C91,339.699,89.801,346,92.2,351.7c2.4,5.7,7.8,9.3,13.8,9.3h45v76c0,8.399,6.599,15,15,15h60c8.401,0,15-6.601,15-15v-46h30v46
	c0,8.399,6.599,15,15,15h60c8.401,0,15-6.601,15-15v-76h45c6,0,11.4-3.6,13.801-9.3C422.199,346,421,339.699,416.499,335.499z"/>
<path style="fill:#1689FC;" d="M419.801,351.7C417.4,357.4,412,361,406,361h-45v76c0,8.399-6.599,15-15,15h-60
	c-8.401,0-15-6.601-15-15v-46h-15V181c3.9,0,7.8,1.5,10.499,4.499l150,150C421,339.699,422.199,346,419.801,351.7z"/>
<path style="fill:#0053BF;" d="M512,45v105H151l-30-27.001V30.3L151,0h316C491.901,0,512,20.099,512,45z"/>
<path style="fill:#05377F;" d="M512,45v105H256V0h211C491.901,0,512,20.099,512,45z"/>
<path style="fill:#B674F2;" d="M151,150H0V45C0,20.186,20.186,0,45,0h106V150z"/>
<g>
	<path style="fill:#BFE1FF;" d="M346,90h-30c-8.291,0-15-6.709-15-15s6.709-15,15-15h30c8.291,0,15,6.709,15,15S354.291,90,346,90z"
		/>
	<path style="fill:#BFE1FF;" d="M271,75c0,8.401-6.599,15-15,15h-30c-8.401,0-15-6.599-15-15s6.599-15,15-15h30
		C264.401,60,271,66.599,271,75z"/>
	<path style="fill:#BFE1FF;" d="M256,90V60c8.401,0,15,6.599,15,15S264.401,90,256,90z"/>
	<path style="fill:#BFE1FF;" d="M437,90h-31c-8.291,0-15-6.709-15-15s6.709-15,15-15h31c8.291,0,15,6.709,15,15S445.291,90,437,90z"
		/>
</g>
<g>
</g>
<g>
</g>
<g>
</g>
<g>
</g>
<g>
</g>
<g>
</g>
<g>
</g>
<g>
</g>
<g>
</g>
<g>
</g>
<g>
</g>
<g>
</g>
<g>
</g>
<g>
</g>
<g>
</g>
</svg>
